<svg xmlns="http://www.w3.org/2000/svg" fill="none" viewBox="0 0 20 28">
  <g fill="#FF7917" clip-path="url(#clip0)">
    <path d="M9.987 4c1.486 0 2.915.524 4.018 1.469 2.287 1.969 2.662 5.38.855 7.762-.569.748-1.786 2.457-2.714 3.768H7.855c-.928-1.311-2.145-3.019-2.712-3.765-1.809-2.384-1.435-5.795.861-7.772C7.093 4.519 8.507 4 9.987 4zm0-4C7.622 0 5.262.813 3.385 2.438c-3.897 3.356-4.505 9.159-1.43 13.214C2.885 16.875 5.781 21 5.781 21h8.438s2.896-4.125 3.826-5.348c3.075-4.055 2.467-9.858-1.43-13.214C14.72.813 12.351 0 9.987 0zM8.182 28C6.977 28 6 26.881 6 25.5V23h8v2.5c0 1.381-.977 2.5-2.182 2.5H8.182z"/>
  </g>
  <defs>
    <clipPath id="clip0">
      <path fill="#fff" d="M0 0h20v28H0z"/>
    </clipPath>
  </defs>
</svg>