<?xml version="1.0" encoding="utf-8"?>
<!-- Generator: Adobe Illustrator 19.2.1, SVG Export Plug-In . SVG Version: 6.00 Build 0)  -->
<svg version="1.1" id="Layer_1" xmlns="http://www.w3.org/2000/svg" xmlns:xlink="http://www.w3.org/1999/xlink" x="0px" y="0px"
	 viewBox="0 0 1000 1000" style="enable-background:new 0 0 1000 1000;" xml:space="preserve">
<style type="text/css">
	.st0{fill:#00CBD5;}
</style>
<g>
	<g>
		<polygon class="st0" points="485.4,475.4 472.3,462.3 460,474.5 485.4,499.9 540,445.3 527.7,433 		"/>
		<path class="st0" d="M500,389.3c-40.8,0-74.1,33.2-74.1,74.1s33.2,74.1,74.1,74.1s74.1-33.2,74.1-74.1S540.8,389.3,500,389.3z
			 M500,520.1c-31.3,0-56.8-25.4-56.8-56.7c0-31.3,25.5-56.7,56.8-56.7c31.3,0,56.7,25.4,56.7,56.7
			C556.7,494.7,531.3,520.1,500,520.1z"/>
		<path class="st0" d="M314.6,394v138.7c0,30.2,24.6,54.8,54.8,54.8h261.2c30.2,0,54.8-24.6,54.8-54.8V394
			c0-29.9-24.1-54.2-53.9-54.8v-69.4c0-72.5-59-131.5-131.5-131.5c-72.5,0-131.5,59-131.5,131.5v69.4
			C338.7,339.8,314.6,364.1,314.6,394z M668.1,394v5.8H643v17.3h25.1v23.6h-30.5V458h30.5v23.6h-30.5v17.3h30.5v23.6H643v17.3h24.4
			c-3.3,17.3-18.5,30.4-36.8,30.4H369.4c-18.3,0-33.5-13.1-36.8-30.4H357v-17.3h-25.1v-23.6h30.5v-17.3h-30.5V458h30.5v-17.3h-30.5
			v-23.6H357v-17.3h-25.1V394c0-20.7,16.8-37.5,37.5-37.5h261.2C651.3,356.5,668.1,373.3,668.1,394z M565.3,339.2H434.7v-66.7
			c0-35.7,26.7-65.4,60.8-67.7c18.3-1.3,35.7,5,49,17.5c13.2,12.3,20.7,29.7,20.7,47.7V339.2z M500,155.7
			c63,0,114.2,51.2,114.2,114.2v68.8h-31.6v-68.8c0-22.8-9.6-44.7-26.2-60.3c-16.9-15.8-38.9-23.7-62-22.1c-43.2,2.9-77,40.2-77,85
			v66.7h-31.6v-69.3C385.8,206.9,437,155.7,500,155.7z"/>
		<path class="st0" d="M846.4,274.3H657.2v17.3h189.2c8,0,14.4,6.5,14.4,14.4v364.8H139.2V306c0-8,6.5-14.4,14.4-14.4h189.2v-17.3
			H153.6c-17.5,0-31.8,14.2-31.8,31.8v415.7c0,17.5,14.2,31.8,31.8,31.8h250.7L360,818.9h-46.2v17.3h372.4v-17.3H640l-44.4-65.4
			h250.7c17.5,0,31.8-14.2,31.8-31.8V306C878.1,288.5,863.9,274.3,846.4,274.3z M619.1,818.9H380.9l44.3-65.4h149.5L619.1,818.9z
			 M846.4,736.1H153.6c-8,0-14.4-6.5-14.4-14.4v-33.6h721.7v33.6C860.8,729.7,854.4,736.1,846.4,736.1z"/>
	</g>
</g>
</svg>
